<svg xmlns="http://www.w3.org/2000/svg" viewBox="628 162 664 756">
  <path fill="#A7F175" d="M805.87,653.45c6.5-6.2,15.69-9.22,24.48-11.7,56.12-15.81,114.47-21.72,172.08-30.7,57.62-8.98,115.66-21.4,167.05-48.89,51.39-27.49,95.96-71.95,112.27-127.79,20.07-68.7-6.8-146.11-58.51-195.71-51.72-49.6-124.77-73.22-196.5-74.59-121.04-2.3-237.93,56.91-309.99,153.28-50.68,67.78-83.11,150.15-86.19,235.06-3.66,100.91,36.16,204.2,112.08,270.98,79.49,69.92,190.42,95.22,296.37,92.39,86.19-2.3,171.9-21.67,250.67-56.65-.05-69.59.05-139.17,0-208.76-91.07,38.54-185.27,71.92-283.04,87.02-58.79,9.08-122.04,10.74-174.39-17.42-11.81-6.35-23.21-14.52-29.83-26.16-6.62-11.64-7.39-27.37,1.06-37.77.75-.92,1.55-1.79,2.4-2.6ZM805.56,507.26c12.56-44.45,33.15-85.35,62.39-121.16,34.89-42.72,86.72-76.53,142.23-60.77,25.81,7.33,43.49,27.81,47.78,53.7,4.4,26.49-1.45,51.82-16.6,74.09-9.22,13.55-19.86,25.86-32.65,36.45-57.64,47.77-137.69,77.56-213.93,93.39-1.1-25.81,3.66-50.54,10.77-75.71Z"/>
</svg>
