<svg xmlns="http://www.w3.org/2000/svg" viewBox="308 439 1304 202" color="#D4D4D6">
  <path fill="currentColor" d="M843.94,601.68c-15.05,0-26.37-5.11-33.98-15.33-7.61-10.22-11.41-25.8-11.41-46.74v-70.16h35.33v65.75c0,12.6,1.88,21.96,5.64,28.09,3.76,6.13,9.48,9.2,17.17,9.2,4.58,0,8.59-1.14,12.02-3.44,3.44-2.29,6.38-5.48,8.83-9.57,2.45-4.09,4.29-8.91,5.52-14.48,1.23-5.56,1.92-11.53,2.09-17.91v-57.65h35.33v132.24h-28.46l-.23-41.19c0-1.37-1.12-2.48-2.49-2.48h0c-1.14,0-2.13.79-2.41,1.9-2.37,9.29-5.28,16.95-8.73,23.01-3.68,6.46-8.34,11.2-13.98,14.23-5.64,3.03-12.39,4.54-20.24,4.54Z"></path><path fill="currentColor" d="M1073.05,602.16v-132.24h28.95l-.23,39.2c0,1.52,1.22,2.75,2.74,2.75h0c1.26,0,2.35-.88,2.65-2.1,2.09-8.39,4.95-15.46,8.58-21.2,3.92-6.21,8.87-10.88,14.84-13.98,5.97-3.11,13.04-4.66,21.22-4.66,14.88,0,26.21,5.24,33.98,15.7,7.77,10.47,11.65,26.91,11.65,49.31v67.22h-35.57v-63.3c0-13.74-2.01-23.76-6.01-30.05-4.01-6.3-9.86-9.45-17.54-9.45-6.54,0-12.02,2.05-16.44,6.13-4.42,4.09-7.73,9.44-9.94,16.07s-3.4,14.03-3.56,22.2v58.39h-35.33Z"></path><path fill="currentColor" d="M1607.3,507.1c-1.8-8.26-4.5-15.13-8.09-20.61-3.6-5.48-8.06-9.61-13.37-12.39-5.32-2.78-11.49-4.17-18.52-4.17s-13.46,1.47-19.26,4.42c-5.81,2.95-10.8,7.53-14.97,13.74-3.91,5.83-7.07,13.18-9.47,22.03-.28,1.03-1.2,1.76-2.27,1.76h0c-1.2,0-2.2-.92-2.34-2.12-.9-7.92-2.62-14.69-5.18-20.33-2.78-6.13-6.71-10.92-11.78-14.35-5.07-3.44-11.45-5.15-19.14-5.15-7.2,0-13.45,1.56-18.77,4.66-5.32,3.11-9.86,7.73-13.62,13.86-3.54,5.77-6.42,13.01-8.66,21.74-.25.99-1.13,1.69-2.15,1.69h0c-1.23,0-2.23-1-2.23-2.23v-39.72h-35.33v57.65c-.17,6.38-.86,12.35-2.09,17.91-1.23,5.56-3.07,10.39-5.52,14.48-2.45,4.09-5.4,7.28-8.83,9.57-3.43,2.29-7.44,3.44-12.02,3.44-7.69,0-13.41-3.07-17.17-9.2-3.76-6.13-5.64-15.5-5.64-28.09v-65.75h-35.33v70.16c0,20.94,3.8,36.52,11.41,46.74,7.6,10.22,18.93,15.33,33.98,15.33,7.85,0,14.6-1.51,20.24-4.54,5.64-3.03,10.3-7.77,13.98-14.23,3.46-6.07,6.38-13.77,8.75-23.1.27-1.05,1.2-1.8,2.29-1.8h0c1.31,0,2.37,1.06,2.37,2.37v41.3h35.33v-59.37c.16-8.01,1.31-15.29,3.43-21.83,2.12-6.54,5.15-11.65,9.08-15.33,3.92-3.68,8.67-5.52,14.23-5.52,4.74,0,8.67,1.55,11.77,4.66,3.11,3.11,5.48,7.65,7.11,13.62,1.63,5.97,2.45,13.54,2.45,22.69v61.09h34.59v-59.62c.16-8.18,1.39-15.46,3.68-21.83,2.31-6.43,5.45-11.49,9.42-15.18s8.95-5.49,14.16-5.43c4.78.05,8.7,1.52,11.75,4.41,3.11,2.94,5.4,7.4,6.87,13.37,1.47,5.97,2.21,13.37,2.21,22.2v62.07h35.33v-66.49c0-10.8-.9-20.32-2.7-28.58Z"></path><path fill="currentColor" d="M495.23,602.16c-16.37,0-28.83-4.01-37.39-12.05-8.56-8.03-12.84-19.78-12.84-35.23v-84.87h-13.14v-28.29h47.24v110.32c0,6.97,1.29,11.75,3.87,14.32,2.57,2.58,7.19,3.86,13.87,3.86,2.73,0,12.16-.57,12.16-.57v31.6s-9.51.91-13.75.91Z"></path><path fill="currentColor" d="M628.82,499.14c-5.21-9.84-12.38-17.23-21.51-22.19-9.13-4.95-19.66-7.44-31.59-7.44s-22,2.44-31.13,7.32c-9.13,4.88-16.3,12.2-21.51,21.95-5.21,9.76-7.81,21.99-7.81,36.7s2.56,26.99,7.7,36.82c5.13,9.84,12.23,17.27,21.29,22.31,9.06,5.04,19.54,7.56,31.47,7.56s22-2.4,31.13-7.2c9.13-4.8,16.38-12.11,21.74-21.95,5.36-9.84,8.04-22.19,8.04-37.06s-2.6-26.99-7.81-36.82ZM600.23,557.5c-1.99,5.3-4.93,9.25-8.83,11.86-3.9,2.61-8.72,3.92-14.46,3.92-8.83,0-15.75-3.19-20.75-9.58-5-6.38-7.5-15.74-7.5-28.07,0-7.69,1.03-14.18,3.09-19.48,2.06-5.29,5.08-9.21,9.05-11.75,3.97-2.54,8.68-3.81,14.12-3.81,6.32,0,11.55,1.49,15.67,4.46,4.12,2.98,7.25,7.26,9.38,12.84,2.13,5.59,3.2,12.37,3.2,20.35,0,7.54-.99,13.96-2.98,19.26Z"></path><path fill="currentColor" d="M745.99,638.28v-35.11c0-3.98.24-8.08.72-12.3.48-4.22,1.15-8.55,2.03-13.02.68-3.48,1.39-6.96,2.12-10.45.32-1.51-.83-2.93-2.37-2.93h0c-1.06,0-1.99.71-2.31,1.72-2.16,6.92-4.93,12.95-8.31,18.1-3.67,5.57-8.28,9.83-13.85,12.78-5.57,2.94-12.42,4.42-20.54,4.42-11.15,0-20.46-2.86-27.94-8.6-7.49-5.73-13.14-13.49-16.96-23.28-3.82-9.79-5.73-20.9-5.73-33.31,0-13.69,2.11-25.51,6.33-35.46,4.22-9.95,10.31-17.67,18.27-23.16,7.96-5.49,17.43-8.24,28.42-8.24,7.64,0,14.33,1.43,20.06,4.3,5.73,2.86,10.42,7.09,14.09,12.66,3.35,5.1,5.7,11.47,7.05,19.1.22,1.24,1.27,2.16,2.53,2.16h0c1.43,0,2.59-1.17,2.57-2.6l-.45-35.61h28.66v168.84h-34.39ZM716.14,574.04c3.82,0,7.28-.75,10.39-2.27,3.1-1.51,5.85-3.5,8.24-5.97,2.39-2.47,4.42-5.21,6.09-8.24,1.67-3.02,2.94-6.21,3.82-9.55.87-3.34,1.31-6.53,1.31-9.55v-4.54c0-3.82-.6-7.88-1.79-12.18-1.19-4.3-2.95-8.24-5.25-11.82-2.31-3.58-5.3-6.53-8.96-8.84-3.67-2.3-8.12-3.46-13.37-3.46-5.57,0-10.43,1.59-14.57,4.78-4.14,3.19-7.37,7.64-9.67,13.37-2.31,5.73-3.46,12.58-3.46,20.54,0,7.32,1.11,13.81,3.34,19.46,2.23,5.65,5.33,10.11,9.31,13.37,3.98,3.26,8.83,4.9,14.57,4.9Z"></path><path fill="currentColor" d="M341.24,555.37c1.16-1.1,2.79-1.64,4.36-2.08,9.99-2.81,20.37-3.87,30.62-5.46s20.58-3.81,29.73-8.7c9.15-4.89,17.08-12.8,19.98-22.74,3.57-12.23-1.21-26-10.41-34.83-9.2-8.83-22.2-13.03-34.97-13.27-21.54-.41-42.34,10.13-55.17,27.28-9.02,12.06-14.79,26.72-15.34,41.83-.65,17.96,6.43,36.34,19.95,48.22,14.15,12.44,33.89,16.95,52.74,16.44,15.34-.41,30.59-3.86,44.61-10.08,0-12.38-.02-24.77-.03-37.15-16.21,6.86-32.94,12.8-50.34,15.49-10.46,1.62-21.72,1.91-31.03-3.1-2.1-1.13-4.13-2.58-5.31-4.65-1.18-2.07-1.32-4.87.19-6.72.13-.16.28-.32.43-.46ZM341.19,529.36c2.24-7.91,5.9-15.19,11.1-21.56,6.21-7.6,15.43-13.62,25.31-10.81,4.59,1.3,7.74,4.95,8.5,9.56.78,4.71-.26,9.22-2.95,13.19-1.64,2.41-3.53,4.6-5.81,6.49-10.26,8.5-24.5,13.8-38.07,16.62-.2-4.59.65-8.99,1.92-13.47Z"></path><path fill="currentColor" d="M968.87,556.55c1.16-1.1,2.79-1.64,4.36-2.08,9.99-2.81,20.37-3.87,30.62-5.46,10.25-1.6,20.58-3.81,29.73-8.7,9.15-4.89,17.08-12.8,19.98-22.74,3.57-12.23-1.21-26-10.41-34.83-9.2-8.83-22.2-13.03-34.97-13.27-21.54-.41-42.34,10.13-55.17,27.28-9.02,12.06-14.79,26.72-15.34,41.83-.65,17.96,6.43,36.34,19.95,48.22,14.15,12.44,33.89,16.95,52.74,16.44,15.34-.41,30.59-3.86,44.61-10.08,0-12.38-.02-24.77-.03-37.15-16.21,6.86-32.94,12.8-50.34,15.49-10.46,1.62-21.72,1.91-31.03-3.1-2.1-1.13-4.13-2.58-5.31-4.65-1.18-2.07-1.32-4.87.19-6.72.13-.16.28-.32.43-.46ZM968.81,530.53c2.24-7.91,5.9-15.19,11.1-21.56,6.21-7.6,15.43-13.62,25.31-10.81,4.59,1.3,7.74,4.95,8.5,9.56.78,4.71-.26,9.22-2.95,13.19-1.64,2.41-3.53,4.6-5.81,6.49-10.26,8.5-24.5,13.8-38.07,16.62-.2-4.59.65-8.99,1.92-13.47Z"></path><path fill="currentColor" d="M1295.97,499.12v-29.2h-29.9v-28.21h-20.12l-3.19,18.4c-.49,3.92-1.96,6.62-4.42,8.1-2.45,1.47-6.22,1.71-11.29,1.71h-13.49v29.2h18.41v55.76c0,15.46,4.28,27.2,12.84,35.23,8.56,8.03,21.02,12.05,37.39,12.05,4.24,0,13.75-.91,13.75-.91v-31.6s-9.43.57-12.16.57c-6.67,0-11.29-1.29-13.87-3.86-2.58-2.58-3.87-7.35-3.87-14.32v-52.92h29.89Z"></path>
</svg>
